<svg width="24" height="24" viewBox="0 0 24 24" fill="none" xmlns="http://www.w3.org/2000/svg">
  <defs>
    <linearGradient id="sparkleGradient" x1="0%" y1="0%" x2="100%" y2="100%">
      <stop offset="0%" stop-color="#00C4CC"/>
      <stop offset="50%" stop-color="#7D2AE8"/>
      <stop offset="100%" stop-color="#8B3DFF"/>
    </linearGradient>
  </defs>
  <path d="M12 2L13.5 8.5L20 10L13.5 11.5L12 18L10.5 11.5L4 10L10.5 8.5L12 2Z" fill="url(#sparkleGradient)"/>
  <path d="M18 14L18.75 16.25L21 17L18.75 17.75L18 20L17.25 17.75L15 17L17.25 16.25L18 14Z" fill="url(#sparkleGradient)"/>
  <path d="M6 14L6.5 15.5L8 16L6.5 16.5L6 18L5.5 16.5L4 16L5.5 15.5L6 14Z" fill="url(#sparkleGradient)"/>
</svg>
