<svg width="35" height="35" viewBox="0 0 35 35" fill="none" xmlns="http://www.w3.org/2000/svg">
<g filter="url(#filter0_ii_682_29504)">
<circle cx="17.1429" cy="17.1431" r="14.2857" fill="url(#paint0_linear_682_29504)"/>
</g>
<circle cx="17.1429" cy="17.1431" r="14.2381" stroke="black" stroke-opacity="0.12" stroke-width="0.095148"/>
<path d="M18.7402 7.85142C21.6527 7.85166 23.3901 9.31917 23.3901 11.314C23.3889 13.37 21.9017 14.8277 20.6348 14.8283C20.3204 14.8281 20.1613 14.6712 20.1604 14.4167C20.1608 13.8472 21.0774 12.9905 21.0784 11.3768C21.0784 10.016 20.2471 9.16057 18.8867 9.16002C15.9738 9.16002 12.6564 12.6009 12.6562 18.5532C12.6569 22.0661 14.4025 24.6105 17.2196 24.6106C19.6555 24.6101 21.7621 22.8602 22.9813 20.3891C23.089 20.1723 23.1929 20.0727 23.3105 20.0724C23.4807 20.0729 23.6439 20.2193 23.644 20.5384C23.6416 21.9839 21.0578 26.429 16.5904 26.4298C12.3793 26.4298 9.64919 23.2694 9.64844 18.4904C9.64848 17.486 9.76183 16.5268 9.9721 15.6249C10.7243 15.5205 11.3502 15.0024 11.5946 14.2926C11.843 13.62 12.0273 13.3303 12.2042 13.1514C12.361 12.9933 12.6412 12.7935 13.3189 12.5919C14.1651 12.4065 14.9105 11.6788 14.9107 10.6402C14.9106 10.0454 14.666 9.55252 14.2983 9.20466C15.6325 8.33681 17.157 7.85161 18.7402 7.85142Z" fill="white"/>
<path d="M6.31696 13.6159C6.42597 13.6159 6.51504 13.707 6.51507 13.8196C6.6962 14.7549 7.22246 15.2061 8.12779 15.4867C8.2367 15.4867 8.32572 15.578 8.32589 15.6904C8.32589 15.803 8.23681 15.8941 8.12779 15.8941C7.22264 16.0813 6.78674 16.6263 6.51507 17.5612C6.51507 17.6738 6.42598 17.7663 6.31696 17.7663C6.20795 17.7663 6.11886 17.6738 6.11886 17.5612C5.9376 16.6263 5.41138 16.1747 4.50614 15.8941C4.39712 15.8941 4.30803 15.803 4.30803 15.6904C4.3082 15.578 4.39722 15.4867 4.50614 15.4867C5.41139 15.2995 5.84721 14.7548 6.11886 13.8196C6.11889 13.707 6.20796 13.6159 6.31696 13.6159Z" fill="white"/>
<path d="M9.69308 7.41895C9.79833 7.41895 9.88266 7.48715 9.90932 7.57799C10.1632 8.81014 10.9817 9.87738 12.8181 10.4016C12.8434 10.4089 12.8704 10.4183 12.8962 10.4254L12.9855 10.4421C13.0095 10.4517 13.0307 10.4661 13.0497 10.4826C13.056 10.488 13.0608 10.4946 13.0664 10.5007C13.0783 10.5136 13.0887 10.5272 13.0971 10.5426C13.1014 10.5503 13.105 10.558 13.1083 10.5663C13.1174 10.5895 13.125 10.614 13.125 10.6402L13.1208 10.6835C13.1189 10.692 13.1126 10.6991 13.1097 10.7072C13.1061 10.717 13.102 10.7259 13.0971 10.7351C13.0899 10.7482 13.0818 10.76 13.072 10.7713C13.0636 10.7812 13.0556 10.7909 13.0455 10.7992C13.0376 10.8056 13.0291 10.8106 13.0204 10.816C13.0061 10.8249 12.992 10.834 12.9757 10.8397C12.9668 10.8428 12.9572 10.8432 12.9478 10.8453C12.931 10.849 12.9142 10.8551 12.8962 10.8551C12.8386 10.8715 12.7826 10.8896 12.7274 10.9067C12.5375 10.9658 12.3609 11.0261 12.1973 11.0922C10.9113 11.6115 10.3955 12.3782 9.91211 13.6941C9.88809 13.7885 9.80108 13.8615 9.69308 13.8615C9.58114 13.8615 9.49244 13.784 9.47266 13.6843C9.06557 12.2883 8.40254 11.3744 6.48995 10.8551C6.36371 10.8551 6.26133 10.7587 6.26116 10.6402C6.26116 10.5216 6.3636 10.4254 6.48995 10.4254C8.38152 9.90942 9.23232 8.91184 9.47545 7.58078C9.5012 7.48864 9.58684 7.41895 9.69308 7.41895Z" fill="white"/>
<defs>
<filter id="filter0_ii_682_29504" x="2.85714" y="2.85742" width="28.5714" height="28.5713" filterUnits="userSpaceOnUse" color-interpolation-filters="sRGB">
<feFlood flood-opacity="0" result="BackgroundImageFix"/>
<feBlend mode="normal" in="SourceGraphic" in2="BackgroundImageFix" result="shape"/>
<feColorMatrix in="SourceAlpha" type="matrix" values="0 0 0 0 0 0 0 0 0 0 0 0 0 0 0 0 0 0 127 0" result="hardAlpha"/>
<feMorphology radius="2.55139" operator="erode" in="SourceAlpha" result="effect1_innerShadow_682_29504"/>
<feOffset/>
<feGaussianBlur stdDeviation="4.31774"/>
<feComposite in2="hardAlpha" operator="arithmetic" k2="-1" k3="1"/>
<feColorMatrix type="matrix" values="0 0 0 0 0 0 0 0 0 0.950481 0 0 0 0 0.989277 0 0 0 1 0"/>
<feBlend mode="normal" in2="shape" result="effect1_innerShadow_682_29504"/>
<feColorMatrix in="SourceAlpha" type="matrix" values="0 0 0 0 0 0 0 0 0 0 0 0 0 0 0 0 0 0 127 0" result="hardAlpha"/>
<feMorphology radius="0.785045" operator="erode" in="SourceAlpha" result="effect2_innerShadow_682_29504"/>
<feOffset/>
<feGaussianBlur stdDeviation="0.981306"/>
<feComposite in2="hardAlpha" operator="arithmetic" k2="-1" k3="1"/>
<feColorMatrix type="matrix" values="0 0 0 0 0.996434 0 0 0 0 0.904917 0 0 0 0 1 0 0 0 1 0"/>
<feBlend mode="normal" in2="effect1_innerShadow_682_29504" result="effect2_innerShadow_682_29504"/>
</filter>
<linearGradient id="paint0_linear_682_29504" x1="11.6833" y1="6.3382" x2="14.4807" y2="31.1234" gradientUnits="userSpaceOnUse">
<stop offset="0.029444" stop-color="#00C4CC"/>
<stop offset="0.519444" stop-color="#5A32FA"/>
<stop offset="1" stop-color="#7D2AE8"/>
</linearGradient>
</defs>
</svg>
